# xmcd CD database file
#
# Track frame offsets:
#	150
#	15102
#	33392
#	49840
#	66382
#	92642
#	107657
#	128715
#	149840
#	166502
#
# Disc length: 2488 seconds
#
# Revision: 2
# Processed by: cddbd v1.5.1PL0 Copyright (c) Steve Scherf et al.
# Submitted via: CDex 1.51
#
DISCID=7e09b60a
DTITLE=David Lee Roth - Skyscraper
DYEAR=1988
DGENRE=Hard Rock
TTITLE0=Knucklebones
TTITLE1=Just Like Paradise
TTITLE2=The Bottom Line
TTITLE3=Skyscraper
TTITLE4=Damn Good
TTITLE5=Hot Dog And A Shake
TTITLE6=Stand Up
TTITLE7=Hina
TTITLE8=Perfect Timing
TTITLE9=Two Fools A Minute
EXTD=YEAR: 1988
EXTT0=
EXTT1=
EXTT2=
EXTT3=
EXTT4=
EXTT5=
EXTT6=
EXTT7=
EXTT8=
EXTT9=
PLAYORDER=
